<svg version="1.1" xmlns="http://www.w3.org/2000/svg" viewBox="-15.142136623730952 -2.995446587470112 24.67767152966369 5.595263881000742" fill="none" stroke="black" stroke-width="0.6%" vector-effect="non-scaling-stroke">
    <path d="M -14.14214 0.99751 L -14.14214 -0.99751 L -7.07107 -0.49854 L 2.75336 -0.39954 A 5 0.35282 180 0 0 7.07107 -0.49854 A 5 0.35282 180 0 0 8.53553 -0.74802 L 8.53553 1.24699" />
    <path d="M -7.07107 1.49648 L -7.07107 -0.49854" />
    <path d="M -14.14214 0.99751 L -7.07107 1.49648 L 2.75336 1.59547 A 5 0.35282 180 0 0 7.07107 1.49648 A 5 0.35282 180 0 0 8.53553 1.24699" />
    <path d="M 2.75336 1.59547 L 2.75336 -0.39954" />
    <path d="M 8.53553 -0.74802 A 5 0.35282 180 0 0 8.47398 -0.80322 L 7.07107 -1.49648 L 0 -1.99545 L -14.14214 -0.99751" />
</svg>