<svg version="1.1" xmlns="http://www.w3.org/2000/svg" viewBox="-15.142136623730954 -3.0257084378723302 24.67767152966369 5.643729131536071" fill="none" stroke="black" stroke-width="0.6%" vector-effect="non-scaling-stroke">
    <path d="M -14.14214 0.99735 L -14.14214 -0.99735 L -7.07107 -0.48318 L 2.75336 -0.38116 A 5 0.36358 180 0 0 7.07107 -0.48318 A 5 0.36358 180 0 0 8.53553 -0.74026 L 8.53553 1.25444" />
    <path d="M -7.07107 1.51153 L -7.07107 -0.48318" />
    <path d="M -14.14214 0.99735 L -7.07107 1.51153 L 2.75336 1.61354 A 5 0.36358 180 0 0 7.07107 1.51153 A 5 0.36358 180 0 0 8.53553 1.25444" />
    <path d="M 2.75336 1.61354 L 2.75336 -0.38116" />
    <path d="M 8.53553 -0.74026 A 5 0.36358 180 0 0 8.47398 -0.79714 L 7.07107 -1.51153 L 0 -2.02571 L -14.14214 -0.99735" />
</svg>