<svg version="1.1" xmlns="http://www.w3.org/2000/svg" viewBox="-6.280253241235741 -1.9954837707348303 12.372847969777634 3.9882944715015136" fill="none" stroke="black" stroke-width="0.6%" vector-effect="non-scaling-stroke">
    <path d="M 3.33505 0.99281 L 3.33505 -0.007 L 5.09259 -0.06694 L 2.72778 -0.11824 L -0.4913 -0.09 L -0.11598 -0.02125 L 3.33505 -0.007" />
    <path d="M 5.09259 0.93286 L 5.09259 -0.06694" />
    <path d="M 3.33505 0.99281 L 5.09259 0.93286" />
    <path d="M -0.4913 0.90981 L -0.4913 -0.09" />
    <path d="M -0.11598 0.97856 L -0.11598 -0.02125" />
    <path d="M -0.4913 0.90981 L -0.11598 0.97856 L 3.33505 0.99281" />
    <path d="M 1.73874 -0.10956 L 1.73874 -0.29941 L 3.49628 -0.35936 L 1.13146 -0.41065 L -2.08761 -0.38241 L -1.7123 -0.31366 L 1.73874 -0.29941" />
    <path d="M 3.49628 -0.10157 L 3.49628 -0.35936" />
    <path d="M -2.08761 0.6174 L -2.08761 -0.38241" />
    <path d="M -1.7123 0.68615 L -1.7123 -0.31366" />
    <path d="M -2.08761 0.6174 L -1.7123 0.68615 L -0.4913 0.69119" />
    <path d="M -1.4539 -0.69439 L -1.4539 -0.88424 L 0.30364 -0.94419 L -2.06118 -0.99548 L -5.28025 -0.96724 L -4.90494 -0.89849 L -1.4539 -0.88424" />
    <path d="M 0.30364 -0.6864 L 0.30364 -0.94419" />
    <path d="M -5.28025 0.03257 L -5.28025 -0.96724" />
    <path d="M -4.90494 0.10132 L -4.90494 -0.89849" />
    <path d="M -5.28025 0.03257 L -4.90494 0.10132 L -3.68393 0.10636" />
    <path d="M 0.14242 -0.40198 L 0.14242 -0.59183 L 1.89996 -0.65177 L -0.46486 -0.70307 L -3.68393 -0.67482 L -3.30862 -0.60607 L 0.14242 -0.59183" />
    <path d="M 1.89996 -0.39398 L 1.89996 -0.65177" />
    <path d="M -3.68393 0.32498 L -3.68393 -0.67482" />
    <path d="M -3.30862 0.39373 L -3.30862 -0.60607" />
    <path d="M -3.68393 0.32498 L -3.30862 0.39373 L -2.08761 0.39877" />
</svg>